<svg xmlns="http://www.w3.org/2000/svg" version="1.1" xmlns:xlink="http://www.w3.org/1999/xlink" xmlns:svgjs="http://svgjs.dev/svgjs" width="1000" height="1000" viewBox="0 0 1000 1000"><rect width="1000" height="1000" fill="#000000"></rect><g transform="matrix(0.7,0,0,0.7,150.82938957645445,17.740809716599188)"><svg viewBox="0 0 179 247" data-background-color="#ffffff" preserveAspectRatio="xMidYMid meet" height="1379" width="1000" xmlns="http://www.w3.org/2000/svg" xmlns:xlink="http://www.w3.org/1999/xlink"><g id="tight-bounds" transform="matrix(1,0,0,1,-0.2120867582296455,-0.09999999999999432)"><svg viewBox="0 0 179.42416923978286 247.2" height="247.2" width="179.42416923978286"><g><svg viewBox="0 0 395.52 544.9240445936609" height="247.2" width="179.42416923978286"><g transform="matrix(1,0,0,1,0,289.39549862260867)"><svg viewBox="0 0 395.52 255.5285459710523" height="255.5285459710523" width="395.52"><g id="textblocktransform"><svg viewBox="0 0 395.52 255.5285459710523" height="255.5285459710523" width="395.52" id="textblock"><g><svg viewBox="0 0 395.52 182.8534673366834" height="182.8534673366834" width="395.52"><g transform="matrix(1,0,0,1,0,0)"><svg width="395.52" viewBox="0.8100000023841858 -40.43000030517578 87.44000244140625 40.43000030517578" height="182.8534673366834" data-palette-color="#001f3f"><path d="M27.15-11.87L19.73-11.87 20.43-13.62 26.44-13.62 27.15-11.87ZM28.56-8.35L18.36-8.35 19.04-10.11 27.81-10.11 28.56-8.35ZM29.93-4.83L16.99-4.83 17.68-6.59 29.2-6.59 29.93-4.83ZM17.75-38.06L2.71 0 0.81 0 16.8-40.43 18.7-40.43 34.67 0 32.79 0 17.75-38.06ZM4.59 0L17.97-33.89 18.97-31.64 6.47 0 4.59 0ZM8.37 0L19.92-29.25 20.85-26.83 10.28 0 8.37 0ZM12.16 0L21.78-24.41 22.71-21.95 14.04 0 12.16 0ZM30.03-40.43L46.02 0 44.12 0 28.15-40.43 30.03-40.43ZM24.37-40.43L26.25-40.43 42.24 0 40.36 0 24.37-40.43ZM20.58-40.43L22.46-40.43 38.45 0 36.55 0 20.58-40.43ZM75.95-14.09L75.95-14.09Q75.95-15.04 75.38-15.36 74.8-15.67 73.7-15.67L73.7-15.67 62.38-15.67 62.38-17.43 73.7-17.43Q77.71-17.43 77.71-14.09L77.71-14.09Q77.71-12.21 76.61-11.38 75.51-10.55 73.7-10.55L73.7-10.55 62.38-10.55 62.38-12.3 73.7-12.3Q75.95-12.3 75.95-14.09ZM61.4-28.13L61.4 0 59.64 0 59.64-29.88 73.7-29.88Q75.36-29.88 76.54-28.87 77.71-27.86 77.71-26.34L77.71-26.34Q77.71-24.34 76.61-23.45 75.51-22.56 73.7-22.56L73.7-22.56 62.38-22.56 62.38-24.32 73.7-24.32Q75.95-24.32 75.95-26.34L75.95-26.34Q75.95-27.17 75.31-27.65 74.68-28.13 73.7-28.13L73.7-28.13 61.4-28.13ZM62.38-19.04L62.38-20.8 73.7-20.8Q76.12-20.8 77.79-22.25 79.47-23.71 79.47-26.34L79.47-26.34Q79.47-28.47 77.72-30.05 75.97-31.64 73.7-31.64L73.7-31.64 57.88-31.64 57.88 0 56.13 0 56.13-33.4 73.7-33.4Q76.71-33.4 78.96-31.29 81.22-29.17 81.22-26.34L81.22-26.34Q81.22-24.12 80.19-22.46 79.15-20.8 77.39-19.9L77.39-19.9Q81.22-18.53 81.22-14.33L81.22-14.33Q81.22-11.01 79.03-9.02 76.83-7.03 73.7-7.03L73.7-7.03 62.38-7.03 62.38-8.79 73.7-8.79Q76.12-8.79 77.79-10.24 79.47-11.69 79.47-14.33L79.47-14.33Q79.47-16.11 78.2-17.48 76.93-18.85 74.46-19.07L74.46-19.07Q74.22-19.04 73.7-19.04L73.7-19.04 62.38-19.04ZM84.74-26.34L84.74-26.34Q84.74-22.92 82.32-20.17L82.32-20.17Q84.74-17.48 84.74-14.33L84.74-14.33Q84.74-11.28 83.21-8.78 81.69-6.27 79.16-4.9 76.63-3.52 73.7-3.52L73.7-3.52 62.38-3.52 62.38-5.27 73.7-5.27Q77.51-5.27 80.25-7.82 82.98-10.38 82.98-14.33L82.98-14.33Q82.98-15.75 82.26-17.47 81.54-19.19 80.27-20.09L80.27-20.09Q82.98-22.63 82.98-26.34L82.98-26.34Q82.98-29.91 80.2-32.53 77.41-35.16 73.7-35.16L73.7-35.16 54.37-35.16 54.37 0 52.61 0 52.61-36.91 73.7-36.91Q76.61-36.91 79.16-35.49 81.71-34.06 83.23-31.6 84.74-29.15 84.74-26.34ZM84.32-20.07L84.32-20.07Q86.5-22.97 86.5-26.34L86.5-26.34Q86.5-29.64 84.75-32.48 83.01-35.33 80.05-37 77.1-38.67 73.7-38.67L73.7-38.67 50.85-38.67 50.85 0 49.09 0 49.09-40.43 73.7-40.43Q77.56-40.43 80.92-38.53 84.27-36.62 86.26-33.36 88.25-30.1 88.25-26.34L88.25-26.34Q88.25-22.75 86.23-20.04L86.23-20.04Q88.25-17.24 88.25-14.33L88.25-14.33Q88.25-11.06 87.08-8.34 85.91-5.62 83.92-3.81 81.93-2 79.29-1 76.66 0 73.7 0L73.7 0 62.38 0 62.38-1.76 73.7-1.76Q76.27-1.76 78.61-2.72 80.95-3.69 82.69-5.35 84.42-7.01 85.46-9.35 86.5-11.69 86.5-14.33L86.5-14.33Q86.5-15.5 85.95-17.15 85.4-18.8 84.32-20.07Z" opacity="1" transform="matrix(1,0,0,1,0,0)" fill="#ffffff" class="wordmark-text-0" data-fill-palette-color="primary" id="text-0"></path></svg></g></svg></g><g transform="matrix(1,0,0,1,0,226.02078249165828)"><svg viewBox="0 0 395.52 29.507763479394036" height="29.507763479394036" width="395.52"><g transform="matrix(1,0,0,1,0,0)"><svg width="395.52" viewBox="1.75 -37.099998474121094 613.8599853515625 45.79999923706055" height="29.507763479394036" data-palette-color="#001f3f"><path d="M35.1-32.65L35.1-32.65 51.45-5Q52.45-3.35 52.45-2.23 52.45-1.1 51.55-0.55 50.65 0 49.45 0L49.45 0 33.35 0Q30.9 0 30.2-0.9L30.2-0.9Q30-1.2 29.65-1.95L29.65-1.95 28.2-5.05Q27.55-6.5 25.15-6.7L25.15-6.7 15.7-6.7Q14.65-6.7 14.1-6.5 13.55-6.3 13.2-5.6L13.2-5.6 11.25-1.55Q10.75-0.65 10.15-0.33 9.55 0 8.4 0L8.4 0 3.9 0Q1.95 0 1.8-1.4L1.8-1.4Q1.75-1.6 1.75-1.8L1.75-1.8Q1.75-2.95 2.5-4L2.5-4 18.15-31.6Q20.4-35.5 25.45-35.5L25.45-35.5 29.45-35.5Q33.45-35.5 35.1-32.65ZM18.9-19.85L18.9-19.85 16.6-15.3Q16.4-14.85 16.4-14.5L16.4-14.5Q16.4-13.2 17.65-13.2L17.65-13.2 22.2-13.2Q23.25-13.2 23.65-13.73 24.05-14.25 24.05-14.65 24.05-15.05 23.9-15.45L23.9-15.45 22-19.75Q21.4-21.05 20.45-21.05 19.5-21.05 18.9-19.85ZM76.1-7.6L76.1-7.6Q79.05-7.6 79.05-12.48 79.05-17.35 76.1-17.35L76.1-17.35Q74.95-17.35 74.02-16.57 73.1-15.8 73.1-14.4L73.1-14.4 73.1-10.55Q73.1-9.15 74.02-8.38 74.95-7.6 76.1-7.6ZM57.3-2.35L57.3-2.35 57.2-18.7Q57.2-26.2 57.35-33.3L57.35-33.3Q57.4-34.95 57.97-35.75 58.55-36.55 60.2-36.55L60.2-36.55 69.8-36.55Q71.45-36.55 72.02-35.77 72.6-35 72.77-32.4 72.95-29.8 72.95-23.2L72.95-23.2Q72.95-22.9 73.1-22.73 73.25-22.55 73.55-22.8L73.55-22.8Q77.05-26.1 82.02-26.1 87-26.1 90.12-22.93 93.25-19.75 93.25-12.63 93.25-5.5 90.1-2.43 86.95 0.65 81.85 0.65L81.85 0.65Q74.35 0.65 72.35-2.8L72.35-2.8Q72.3-1.5 71.4-0.8 70.5-0.1 69.4 0 68.3 0.1 65.4 0.1L65.4 0.1 60.1 0Q59.15 0 58.22-0.68 57.3-1.35 57.3-2.35ZM98.15-2.35L98.15-2.35 98.05-18.7Q98.05-26.2 98.2-33.3L98.2-33.3Q98.25-34.95 98.82-35.75 99.4-36.55 101.05-36.55L101.05-36.55 110.65-36.55Q112.3-36.55 112.87-35.77 113.45-35 113.57-32.98 113.7-30.95 113.8-22.15L113.8-22.15Q117.7-26.1 123.17-26.1 128.65-26.1 131.8-23.4 134.95-20.7 135.02-15.95 135.1-11.2 135.1-7.45 135.1-3.7 135.05-2.4 135-1.1 134.37-0.53 133.75 0.05 131.95 0.05L131.95 0.05 122.35 0.15Q120.75 0.15 120.12-0.43 119.5-1 119.5-2.15L119.5-2.15 119.55-14.35Q119.55-15.85 118.8-16.6 118.05-17.35 116.92-17.35 115.8-17.35 114.9-16.57 114-15.8 113.95-14.4L113.95-14.4 113.65-2.35Q113.6-1.4 112.75-0.75 111.9-0.1 110.67 0 109.45 0.1 107.95 0.1L107.95 0.1 100.95 0Q100 0 99.07-0.68 98.15-1.35 98.15-2.35ZM143.79-25.3L143.79-25.3 153.54-25.3Q155.24-25.3 155.82-24.55 156.39-23.8 156.57-21.23 156.74-18.65 156.74-11.83 156.74-5 156.44-2.2L156.44-2.2Q156.29-1.35 155.59-0.7 154.89-0.05 153.12 0.08 151.34 0.2 148.89 0.2 146.44 0.2 144.44 0.08 142.44-0.05 141.74-0.7 141.04-1.35 140.94-2.2L140.94-2.2Q140.59-5.45 140.59-12.18 140.59-18.9 140.79-21.35 140.99-23.8 141.54-24.55 142.09-25.3 143.79-25.3ZM149.19-37.1L149.19-37.1Q152.49-37.1 154.17-35.77 155.84-34.45 155.84-32.15L155.84-32.15Q155.84-26.75 148.64-26.75L148.64-26.75Q145.74-26.75 143.69-28 141.64-29.25 141.64-31.75L141.64-31.75Q141.64-37.1 149.19-37.1ZM173.74-6.55L173.74-6.55Q173.74-7.95 172.57-8.75 171.39-9.55 169.72-9.98 168.04-10.4 166.34-10.98 164.64-11.55 163.47-12.98 162.29-14.4 162.29-16.75L162.29-16.75Q162.29-26.05 176.74-26.05L176.74-26.05Q182.94-26.05 186.69-23.95L186.69-23.95Q187.89-23.3 188.39-22.73 188.89-22.15 188.89-20.7 188.89-19.25 188.32-18.53 187.74-17.8 187.17-17.8 186.59-17.8 184.67-18.93 182.74-20.05 180.69-20.1L180.69-20.1Q179.04-20.1 179.04-18.45L179.04-18.45Q179.04-17.35 180.19-16.7 181.34-16.05 182.99-15.58 184.64-15.1 186.29-14.43 187.94-13.75 189.09-12.18 190.24-10.6 190.24-8.2L190.24-8.2Q190.24 1.1 175.79 1.1L175.79 1.1Q168.74 1.1 164.29-0.95L164.29-0.95Q162.94-1.5 162.34-2.08 161.74-2.65 161.74-4.17 161.74-5.7 162.37-6.35 162.99-7 163.42-7 163.84-7 166.29-5.9 168.74-4.8 171.24-4.8 173.74-4.8 173.74-6.55ZM195.59-2.35L195.59-2.35 195.49-18.7Q195.49-26.2 195.64-33.3L195.64-33.3Q195.69-34.95 196.26-35.75 196.84-36.55 198.49-36.55L198.49-36.55 208.09-36.55Q209.74-36.55 210.31-35.77 210.89-35 211.01-32.98 211.14-30.95 211.24-22.15L211.24-22.15Q215.14-26.1 220.61-26.1 226.09-26.1 229.24-23.4 232.39-20.7 232.46-15.95 232.54-11.2 232.54-7.45 232.54-3.7 232.49-2.4 232.44-1.1 231.81-0.53 231.19 0.05 229.39 0.05L229.39 0.05 219.79 0.15Q218.19 0.15 217.56-0.43 216.94-1 216.94-2.15L216.94-2.15 216.99-14.35Q216.99-15.85 216.24-16.6 215.49-17.35 214.36-17.35 213.24-17.35 212.34-16.57 211.44-15.8 211.39-14.4L211.39-14.4 211.09-2.35Q211.04-1.4 210.19-0.75 209.34-0.1 208.11 0 206.89 0.1 205.39 0.1L205.39 0.1 198.39 0Q197.44 0 196.51-0.68 195.59-1.35 195.59-2.35ZM244.94-23.93Q247.24-25.05 249.66-25.55 252.09-26.05 255.66-26.05 259.24-26.05 262.49-25.18 265.74-24.3 267.34-22.8L267.34-22.8Q270.14-20.05 270.14-16.35L270.14-16.35Q270.14-10.55 260.34-10.55L260.34-10.55Q256.89-10.55 253.19-11.2L253.19-11.2Q253.34-7.9 254.41-6.55 255.49-5.2 258.24-5.2 260.99-5.2 262.79-5.8 264.59-6.4 265.69-7.03 266.79-7.65 267.56-7.65 268.34-7.65 268.89-6.95L268.89-6.95Q269.74-6.05 269.74-4.48 269.74-2.9 269.11-2.33 268.49-1.75 267.14-1.2L267.14-1.2Q262.39 0.8 253.64 0.8L253.64 0.8Q246.39 0.8 241.71-2.68 237.04-6.15 237.04-12.05L237.04-12.05Q237.04-14.9 238.09-17.28 239.14-19.65 240.89-21.23 242.64-22.8 244.94-23.93ZM256.54-20.35L256.54-20.35Q253.49-20.35 253.24-15.4L253.24-15.4Q255.64-15.2 255.74-15.2L255.74-15.2Q259.04-15.2 259.04-17.4L259.04-17.4Q259.04-20.35 256.54-20.35ZM311.33-0.05L304.43 0.05 298.93 0Q297.03 0 296.28-1.15L296.28-1.15 291.63-8.55Q291.23-8.85 291.16-8.78 291.08-8.7 291.06-7.08 291.03-5.45 290.78-2.15L290.78-2.15Q290.68-1.35 289.98-0.7 289.28-0.05 287.61 0.05 285.93 0.15 283.56 0.15 281.18 0.15 278.28 0L278.28 0Q277.08-0.05 276.41-0.68 275.73-1.3 275.63-2.15L275.63-2.15Q275.13-8.25 275.13-18.45 275.13-28.65 275.53-33.3L275.53-33.3Q275.68-35 276.21-35.77 276.73-36.55 278.38-36.55L278.38-36.55 287.98-36.55Q289.63-36.55 290.18-35.77 290.73-35 290.88-33.3L290.88-33.3Q291.18-28.95 291.18-18.7L291.18-18.7Q291.18-17.55 291.58-17.55L291.58-17.55Q291.83-17.55 292.13-17.85L292.13-17.85 298.68-23.85Q299.53-24.6 300.08-24.83 300.63-25.05 301.63-25.05L301.63-25.05 308.93-25.05Q309.58-25.05 309.88-24.2L309.88-24.2Q309.98-24 309.98-23.6 309.98-23.2 309.48-22.7L309.48-22.7 302.53-16.6Q302.13-16.2 302.53-15.75L302.53-15.75Q307.28-10.15 312.63-2.65L312.63-2.65Q313.18-1.9 313.18-1.3L313.18-1.3Q313.18-0.05 311.33-0.05L311.33-0.05ZM357.88-14.5L357.88-14.5 357.83-8Q357.83-7.55 358.13-7.23 358.43-6.9 358.93-6.9L358.93-6.9Q361.98-6.9 363.95-8.1 365.93-9.3 365.93-11.88 365.93-14.45 363.88-15.45L363.88-15.45Q362.23-16.25 360.28-16.25L360.28-16.25Q359.78-16.25 359.28-16.2L359.28-16.2Q357.88-16.1 357.88-14.5ZM357.83-28.25L357.83-28.25 357.88-24.15Q357.88-23.2 359.03-23.2L359.03-23.2Q364.08-23.2 364.08-26.05L364.08-26.05Q364.08-29.35 359.58-29.35L359.58-29.35Q359.28-29.35 359.03-29.35L359.03-29.35Q357.83-29.35 357.83-28.25ZM341.48-34.95L341.48-34.95Q347.68-35.15 356.98-35.15 366.28-35.15 369.85-34.98 373.43-34.8 376.18-32.2 378.93-29.6 378.93-26.2L378.93-26.2Q378.93-22.05 375.33-20.1L375.33-20.1Q374.98-19.9 374.98-19.63 374.98-19.35 375.33-19.25L375.33-19.25Q377.93-18.55 379.7-16.25 381.48-13.95 381.48-10.8L381.48-10.8Q381.48-6.85 378.43-3.65 375.38-0.45 369.08-0.18 362.78 0.1 359.98 0.1 357.18 0.1 341.28-0.05L341.28-0.05Q339.83-0.05 338.93-0.98 338.03-1.9 337.88-3.1L337.88-3.1Q337.48-7.5 337.48-15.93 337.48-24.35 337.83-30.3L337.83-30.3Q337.98-32.75 338.68-33.83 339.38-34.9 341.48-34.95ZM389.58-25.3L389.58-25.3 399.33-25.3Q401.03-25.3 401.6-24.55 402.18-23.8 402.35-21.23 402.53-18.65 402.53-11.83 402.53-5 402.23-2.2L402.23-2.2Q402.08-1.35 401.38-0.7 400.68-0.05 398.9 0.08 397.13 0.2 394.68 0.2 392.23 0.2 390.23 0.08 388.23-0.05 387.53-0.7 386.83-1.35 386.73-2.2L386.73-2.2Q386.38-5.45 386.38-12.18 386.38-18.9 386.58-21.35 386.78-23.8 387.33-24.55 387.88-25.3 389.58-25.3ZM394.98-37.1L394.98-37.1Q398.28-37.1 399.95-35.77 401.63-34.45 401.63-32.15L401.63-32.15Q401.63-26.75 394.43-26.75L394.43-26.75Q391.53-26.75 389.48-28 387.43-29.25 387.43-31.75L387.43-31.75Q387.43-37.1 394.98-37.1ZM411.72-25.45L411.72-25.45 421.47-25.45Q423.17-25.45 423.82-24.73 424.47-24 424.47-22.55L424.47-22.55 424.47-20.75Q427.27-26.05 433.57-26.05L433.57-26.05Q435.67-26.05 437.02-24.7 438.37-23.35 438.37-21.1 438.37-18.85 437.17-16.63 435.97-14.4 433.82-14.4L433.82-14.4Q432.82-14.4 431.02-15.43 429.22-16.45 428.12-16.45 427.02-16.45 425.85-15.65 424.67-14.85 424.67-13L424.67-13Q424.67-4.95 424.37-2.35L424.37-2.35Q424.22-1.5 423.52-0.85 422.82-0.2 421.05-0.08 419.27 0.05 417.52 0.05 415.77 0.05 411.57-0.15L411.57-0.15Q410.37-0.2 409.67-0.85 408.97-1.5 408.87-2.35L408.87-2.35Q408.52-5.6 408.52-12.3 408.52-19 408.72-21.48 408.92-23.95 409.47-24.7 410.02-25.45 411.72-25.45ZM458.97-26.25L458.97-26.25Q475.27-26.25 475.42-15.65L475.42-15.65Q475.52-11.15 475.52-7.4 475.52-3.65 475.47-2.35 475.42-1.05 474.8-0.48 474.17 0.1 472.37 0.1L472.37 0.1 461.77 0.1Q460.17 0.1 459.57-0.48 458.97-1.05 458.92-2.2L458.92-2.2Q458.92-2.25 458.9-2.38 458.87-2.5 458.87-2.6L458.87-2.6Q455.57 0.8 449.87 0.8L449.87 0.8Q445.92 0.8 443.15-1.18 440.37-3.15 440.37-6.63 440.37-10.1 442.35-12.18 444.32-14.25 447.05-15 449.77-15.75 452.9-15.75 456.02-15.75 459.02-15.15L459.02-15.15 459.02-15.35Q459.02-17.85 458.05-18.95 457.07-20.05 454.9-20.05 452.72-20.05 451.27-19.68 449.82-19.3 449.07-18.9L449.07-18.9Q447.02-17.7 446.22-17.7 445.42-17.7 444.8-18.45 444.17-19.2 444.17-20.78 444.17-22.35 444.75-22.95 445.32-23.55 446.57-24.15L446.57-24.15Q450.92-26.25 458.97-26.25ZM456.62-5.8L456.62-5.8Q458.82-5.8 458.87-6.65L458.87-6.65Q458.97-8.3 458.97-11L458.97-11Q458.97-12.05 457.37-12.05 455.77-12.05 454.77-11.28 453.77-10.5 453.77-9 453.77-7.5 454.6-6.65 455.42-5.8 456.62-5.8ZM498.32-12.6L498.32-12.6 498.12-2.95Q498.12 3.95 492.57 6.45L492.57 6.45Q487.62 8.7 478.67 8.7L478.67 8.7Q477.07 8.7 476.54 7.73 476.02 6.75 476.02 4.38 476.02 2 477.87 1.8L477.87 1.8Q482.47 1.25 482.47-3.1L482.47-3.1 482.42-22Q482.42-23.7 483.02-24.5 483.62-25.3 485.37-25.3L485.37-25.3 495.12-25.3Q496.87-25.3 497.44-24.53 498.02-23.75 498.12-22L498.12-22Q498.32-17.75 498.32-12.6ZM490.77-37.1L490.77-37.1Q494.07-37.1 495.74-35.77 497.42-34.45 497.42-32.15L497.42-32.15Q497.42-26.75 490.22-26.75L490.22-26.75Q487.32-26.75 485.27-28 483.22-29.25 483.22-31.75L483.22-31.75Q483.22-37.1 490.77-37.1ZM520.72-17.8L520.72-17.8Q517.77-17.8 517.77-12.93 517.77-8.05 520.72-8.05L520.72-8.05Q521.87-8.05 522.79-8.83 523.72-9.6 523.72-11L523.72-11 523.72-14.85Q523.72-16.25 522.79-17.03 521.87-17.8 520.72-17.8ZM537.22-0.1L537.22-0.1 531.92 0Q529.02 0 528.02-0.1L528.02-0.1Q524.92-0.3 524.92-3.6L524.92-3.6Q523.07-1.5 520.14-0.2 517.22 1.1 514.77 1.1L514.77 1.1Q509.77 1.1 506.54-2.2 503.32-5.5 503.32-12.4L503.32-12.4Q503.32-21 509.17-24.4L509.17-24.4Q512.27-26.25 516.42-26.25 520.57-26.25 523.47-24.4L523.47-24.4Q524.42-23.75 524.52-24.83 524.62-25.9 524.62-28L524.62-28 524.62-32.15Q524.62-33.15 524.67-34.18 524.72-35.2 525.27-35.88 525.82-36.55 527.52-36.55L527.52-36.55 537.12-36.55Q538.77-36.55 539.34-35.75 539.92-34.95 539.97-33.3L539.97-33.3Q540.12-26.2 540.12-18.8L540.12-18.8Q540.12-18.8 540.02-2.45L540.02-2.45Q540.02-1.45 539.09-0.78 538.17-0.1 537.22-0.1ZM563.21-26.25L563.21-26.25Q579.51-26.25 579.66-15.65L579.66-15.65Q579.76-11.15 579.76-7.4 579.76-3.65 579.71-2.35 579.66-1.05 579.04-0.48 578.41 0.1 576.61 0.1L576.61 0.1 566.01 0.1Q564.41 0.1 563.81-0.48 563.21-1.05 563.16-2.2L563.16-2.2Q563.16-2.25 563.14-2.38 563.11-2.5 563.11-2.6L563.11-2.6Q559.81 0.8 554.11 0.8L554.11 0.8Q550.16 0.8 547.39-1.18 544.61-3.15 544.61-6.63 544.61-10.1 546.59-12.18 548.56-14.25 551.29-15 554.01-15.75 557.14-15.75 560.26-15.75 563.26-15.15L563.26-15.15 563.26-15.35Q563.26-17.85 562.29-18.95 561.31-20.05 559.14-20.05 556.96-20.05 555.51-19.68 554.06-19.3 553.31-18.9L553.31-18.9Q551.26-17.7 550.46-17.7 549.66-17.7 549.04-18.45 548.41-19.2 548.41-20.78 548.41-22.35 548.99-22.95 549.56-23.55 550.81-24.15L550.81-24.15Q555.16-26.25 563.21-26.25ZM560.86-5.8L560.86-5.8Q563.06-5.8 563.11-6.65L563.11-6.65Q563.21-8.3 563.21-11L563.21-11Q563.21-12.05 561.61-12.05 560.01-12.05 559.01-11.28 558.01-10.5 558.01-9 558.01-7.5 558.84-6.65 559.66-5.8 560.86-5.8ZM588.96-25.45L588.96-25.45 598.71-25.45Q600.41-25.45 601.06-24.73 601.71-24 601.71-22.55L601.71-22.55 601.71-20.75Q604.51-26.05 610.81-26.05L610.81-26.05Q612.91-26.05 614.26-24.7 615.61-23.35 615.61-21.1 615.61-18.85 614.41-16.63 613.21-14.4 611.06-14.4L611.06-14.4Q610.06-14.4 608.26-15.43 606.46-16.45 605.36-16.45 604.26-16.45 603.09-15.65 601.91-14.85 601.91-13L601.91-13Q601.91-4.95 601.61-2.35L601.61-2.35Q601.46-1.5 600.76-0.85 600.06-0.2 598.28-0.08 596.51 0.05 594.76 0.05 593.01 0.05 588.81-0.15L588.81-0.15Q587.61-0.2 586.91-0.85 586.21-1.5 586.11-2.35L586.11-2.35Q585.76-5.6 585.76-12.3 585.76-19 585.96-21.48 586.16-23.95 586.71-24.7 587.26-25.45 588.96-25.45Z" opacity="1" transform="matrix(1,0,0,1,0,0)" fill="#ffffff" class="slogan-text-1" data-fill-palette-color="secondary" id="text-1"></path></svg></g></svg></g></svg></g></svg></g><g transform="matrix(1,0,0,1,96.22956584367051,0)"><svg viewBox="0 0 203.06086831265895 203.06086831265895" height="203.06086831265895" width="203.06086831265895"><g><svg></svg></g><g id="icon-0"><svg viewBox="0 0 203.06086831265895 203.06086831265895" height="203.06086831265895" width="203.06086831265895"><g><path d="M0 101.53c0-56.074 45.457-101.53 101.53-101.53 56.074 0 101.53 45.457 101.531 101.53 0 56.074-45.457 101.53-101.531 101.531-56.074 0-101.53-45.457-101.53-101.531zM101.53 186.571c46.967 0 85.041-38.074 85.041-85.041 0-46.967-38.074-85.041-85.041-85.04-46.967 0-85.041 38.074-85.04 85.04 0 46.967 38.074 85.041 85.04 85.041z" data-fill-palette-color="accent" fill="#ffffff" stroke="transparent"></path><ellipse rx="100.51512981476618" ry="100.51512981476618" cx="101.53043415632948" cy="101.53043415632948" fill="#ffffff" stroke="transparent" stroke-width="0" fill-opacity="1" data-fill-palette-color="accent"></ellipse></g><g transform="matrix(1,0,0,1,65.04949911781551,70.37316003082682)"><svg viewBox="0 0 72.96187007702794 62.3145482510053" height="62.3145482510053" width="72.96187007702794"><g><svg version="1.0" xmlns="http://www.w3.org/2000/svg" xmlns:xlink="http://www.w3.org/1999/xlink" x="0" y="0" viewBox="0 0 100 85.4070053100586" enable-background="new 0 0 100 85.407" xml:space="preserve" width="72.96187007702794" height="62.3145482510053" class="icon-s-0" data-fill-palette-color="quaternary" id="s-0"><path d="M100 42.672c0 4.26-1.67 8.128-4.385 11.008-0.466 6.078-4.317 11.208-9.685 13.521v0.057c-6.555 3.817-10.474 10.333-11.667 18.149h-6.061V67.275c0.04-5.652 1.818-9.271 5.544-11.504 1.363-0.784 2.602-1.681 3.658-2.675 2.766 0.994 5.214 2.942 6.771 5.714 0.324 0.545 0.903 0.852 1.477 0.852 0.278 0 0.568-0.068 0.829-0.222 0.83-0.455 1.125-1.488 0.659-2.306h-0.011c-1.744-3.102-4.396-5.391-7.407-6.754 1.545-2.375 2.403-5.203 2.363-8.6 0-0.017 0.023-0.034 0.023-0.057 0-1.534-0.227-3.027-0.636-4.431 3.539-0.676 6.657-2.471 8.952-5 0.636-0.698 0.59-1.772-0.114-2.397-0.699-0.63-1.755-0.574-2.38 0.108-2 2.176-4.698 3.664-7.765 4.073-2.465-4.567-7.049-7.81-12.422-8.401 0.358-2.897 1.664-5.481 3.629-7.447 0.648-0.659 0.648-1.734 0-2.387-0.659-0.665-1.75-0.665-2.408 0-2.516 2.518-4.198 5.88-4.618 9.624-6.311-0.795-11.173-6.152-11.184-12.674 0-0.926-0.767-1.698-1.676-1.698-0.96 0-1.71 0.772-1.71 1.698 0 1.102 0.108 2.153 0.318 3.187-2.392 2.069-5.368 3.114-8.35 3.114-1.471 0-2.948-0.261-4.339-0.767 0 0-0.023-0.006-0.04-0.011-1.715-0.619-3.289-1.604-4.652-2.967-0.653-0.659-1.732-0.659-2.397 0-0.665 0.659-0.665 1.729 0 2.393 1.397 1.392 2.971 2.471 4.646 3.249-0.335 4.22-2.789 7.85-6.22 9.889-1.982-3.011-4.964-5.396-8.628-6.561-0.915-0.284-1.863 0.21-2.153 1.102-0.25 0.892 0.205 1.841 1.108 2.119 2.721 0.863 4.908 2.539 6.481 4.675-1.056 0.284-2.141 0.437-3.294 0.437 0 0 0 0-0.018 0H22.05c-4.351 0-8.35 1.733-11.258 4.568-0.688 0.653-0.704 1.727-0.028 2.392 0.323 0.341 0.767 0.511 1.227 0.511 0.387 0 0.812-0.159 1.142-0.477 2.307-2.25 5.453-3.607 8.918-3.607h0.182 0.005 0.018c8.156 0 14.933-6.074 15.995-13.946 1.159 0.25 2.317 0.386 3.493 0.386 3.312 0 6.652-1.028 9.463-3.062 1.028 2.346 2.653 4.396 4.624 5.987-2.011 2.477-3.192 5.419-3.504 8.429-0.847-0.136-1.738-0.21-2.63-0.21-2.556 0-5.152 0.607-7.566 1.898-0.829 0.438-1.142 1.465-0.704 2.295 0.307 0.562 0.903 0.892 1.511 0.892 0.278 0 0.528-0.062 0.772-0.205 1.943-1.017 3.977-1.5 5.987-1.5 0.897 0 1.783 0.097 2.63 0.278 0.369 3.431 1.852 6.788 4.402 9.458 0.341 0.353 0.778 0.523 1.216 0.523 0.415 0 0.846-0.154 1.182-0.466 0.693-0.653 0.71-1.716 0.051-2.392h-0.011c-2.267-2.397-3.465-5.441-3.544-8.52 0-0.046 0.011-0.08 0-0.131 0-0.062 0-0.125 0-0.188 0-2.989 1.034-5.943 3.079-8.317 2.153 1.074 4.606 1.699 7.203 1.699 0 0 0.011 0.005 0.028 0.005 0 0 0.011 0 0.028 0 7.032 0.023 12.724 5.705 12.752 12.736-1.334-0.352-2.709-0.534-4.118-0.534-2.016 0-4.061 0.369-6.032 1.182-0.875 0.358-1.29 1.34-0.937 2.204 0.357 0.863 1.329 1.284 2.198 0.932 1.579-0.63 3.187-0.937 4.771-0.937 1.278 0 2.545 0.193 3.732 0.562-0.415 1.897-1.227 3.419-2.488 4.771-0.097 0.085-0.188 0.182-0.261 0.295-0.966 0.949-2.125 1.823-3.556 2.692-4.902 2.863-7.254 8.055-7.203 14.418v18.132h-5.783V68.161c0-6.333-3.97-12.339-8.969-14.475-2.386-0.926-4.874-2.477-6.686-4.505-2.584 1.755-5.686 2.789-9.021 2.789-3.346 0-6.447-1.017-9.014-2.76-2.556 1.681-5.641 2.664-8.94 2.664C7.333 51.875 0 44.524 0 35.464c0-6.772 4.095-12.583 9.958-15.083 1.585-7.227 7.986-12.634 15.688-12.634 0.409 0 0.784 0.034 1.165 0.057 2.903-4.243 7.782-7.027 13.309-7.027 2.738 0 5.306 0.682 7.561 1.897C50.225 0.982 53.269 0 56.546 0c4.209 0 8.043 1.642 10.917 4.306 1.204-0.29 2.448-0.46 3.749-0.46 6.504 0 12.127 3.914 14.638 9.52 6.601 2 11.406 8.124 11.406 15.372 0 1.454-0.193 2.857-0.551 4.192C98.762 35.635 100 39.009 100 42.672z" fill="#000000" data-fill-palette-color="quaternary"></path></svg></g></svg></g></svg></g></svg></g><g></g></svg></g><defs></defs></svg><rect width="179.42416923978286" height="247.2" fill="none" stroke="none" visibility="hidden"></rect></g></svg></g></svg>